<svg xmlns="http://www.w3.org/2000/svg" viewBox="0 0 878.33 1091.23"><defs><style>.cls-1{fill:#e25d1c;}.cls-2{fill:#f0af5d;}</style></defs><title>Fichier 3</title><g id="Calque_2" data-name="Calque 2"><g id="Calque_1-2" data-name="Calque 1"><path class="cls-1" d="M0,1091.23C116.41,559.59,460.71,201.62,878.33,0c-313.53,285.45-289,613.65-680.72,724.17,66.34-9.82,119.66-19.3,193.55-73.11C394,689,274.58,763.56,138.05,780.53,86.29,850.5,40.46,959.44,0,1091.23Z"/><path class="cls-2" d="M74.3,1002.1c143.84-198,356-283.4,572.53-291.28-130,42.7-209,86.64-282.29,160.1-5,5-90.69,8.57-128.8,4.08-3.67.4,72.12,13.12,121.2,5-29.13,17-101.09,16.67-132.49,6.55,30.5,7.89,47.62,22.88,87.68,17.14-5.41,16.12-61.21,12.93-123.41-4.65C154,918.51,115,955.12,74.3,1002.1Z"/><path class="cls-2" d="M86.42,1038.41c129.49-85,272.14-88.87,399.13-46.11-85.14-3.33-141.09,5.24-200.66,32.44-4.05,1.85-54.42-14.82-75.4-25.8-2.21-.56,38.62,23.51,68.89,29.46-20.82,3.66-62.33-12.32-78.11-25.15,15.78,11.32,22.16,23.9,46.66,29.29-6.9,8.3-38.4-5.8-70.24-29.76C152.05,1006.65,120.94,1019.66,86.42,1038.41Z"/></g></g></svg>