<svg xmlns="http://www.w3.org/2000/svg" viewBox="0 0 790.75 219.87"><defs><style>.cls-1{fill:#43463c;}.cls-2{fill:#404236;}.cls-3{fill:#f0eadf;}.cls-4{fill:#fdfaee;}.cls-5{fill:#ddd8cc;}.cls-6{fill:#4b4e41;}.cls-7{fill:#dbd6cb;}.cls-8{fill:#b5b0a1;}.cls-9{fill:#523422;}.cls-10{fill:#613e1d;}.cls-11{fill:#5a423f;}.cls-12{fill:#535851;}.cls-13{fill:#536371;}.cls-14{fill:#525450;}.cls-15{fill:#aeaca2;}.cls-16{fill:#505a5d;}.cls-17{fill:#d9d5c9;}.cls-18{fill:#7f8689;}.cls-19{fill:#5d666f;}.cls-20{fill:#4b4c3f;}.cls-21{fill:#9a9586;}.cls-22{fill:#7d837f;}.cls-23{fill:#bcb7aa;}.cls-24{fill:#787467;}.cls-25{fill:#76766c;}.cls-26{fill:#858c95;}.cls-27{fill:#5f6b6f;}.cls-28{fill:#a7a8a3;}.cls-29{fill:#aeb3b6;}.cls-30{fill:#b2b4b2;}.cls-31{fill:#493922;}.cls-32{fill:#6a6d67;}.cls-33{fill:#20221f;}.cls-34{fill:#77756b;}.cls-35{fill:#c1bdb3;}.cls-36{fill:#df6941;}.cls-37{fill:#dcd6c8;}.cls-38{fill:#525d62;}.cls-39{fill:#536067;}.cls-40{fill:#57646c;}.cls-41{fill:#b5b1a5;}.cls-42{fill:#888a88;}.cls-43{fill:#ddd7c8;}.cls-44{fill:#d66644;}.cls-45{fill:#adada8;}.cls-46{fill:#e6b04d;}.cls-47{fill:#e16a3e;}.cls-48{fill:#e96f3f;}.cls-49{fill:#e06a3e;}.cls-50{fill:#e36b3e;}.cls-51{fill:#ecb756;}.cls-52{fill:#e36e43;}.cls-53{fill:#e9b34f;}.cls-54{fill:#e9b34e;}.cls-55{fill:#df683d;}.cls-56{fill:#7a7c7c;}.cls-57{fill:#785a59;}.cls-58{fill:#7d6969;}.cls-59{fill:#755757;}.cls-60{fill:#735455;}.cls-61{fill:#767162;}.cls-62{fill:#7b7778;}.cls-63{fill:#878a8a;}.cls-64{fill:#737168;}.cls-65{fill:#735353;}.cls-66{fill:#898d8d;}.cls-67{fill:#7d796d;}.cls-68{fill:#777977;}.cls-69{fill:#e97c5d;}.cls-70{fill:#efbe6a;}.cls-71{fill:#676e73;}.cls-72{fill:#6d6e6f;}.cls-73{fill:#928b7d;}.cls-74{fill:#363e46;}.cls-75{fill:#505559;}.cls-76{fill:#444448;}.cls-77{fill:#d96744;}.cls-78{fill:#bcbab1;}.cls-79{fill:#d6a059;}.cls-80{fill:#daad6d;}.cls-81{fill:#969284;}.cls-82{fill:#908d80;}.cls-83{fill:#56584f;}.cls-84{fill:#983e19;}.cls-85{fill:#a1712c;}.cls-86{fill:#c28a39;}.cls-87{fill:#1b1f20;}.cls-88{fill:#b58652;}.cls-89{fill:#aeaa9c;}.cls-90{fill:#8e5a2b;}.cls-91{fill:#6a685c;}.cls-92{fill:#c75423;}.cls-93{fill:#7c5a5a;}.cls-94{fill:#805a58;}.cls-95{fill:#835c58;}.cls-96{fill:#7f5957;}.cls-97{fill:#7a5756;}.cls-98{fill:#848888;}.cls-99{fill:#848c94;}.cls-100{fill:#877574;}.cls-101{fill:#be5328;}.cls-102{fill:#3f3e3a;}.cls-103{fill:#181a17;}.cls-104{fill:#6d6d68;}.cls-105{fill:#e4ddcf;}.cls-106{fill:#766c57;}.cls-107{fill:#727472;}.cls-108{fill:#715657;}.cls-109{fill:#e9dacd;}</style></defs><title>Fichier 1</title><g id="Calque_2" data-name="Calque 2"><g id="Calque_1-2" data-name="Calque 1"><path class="cls-1" d="M374.1,199.08c-6.56-1.75-13-3.91-19.46-6-12.21-3.93-25.15-4.27-37.59-7.19-12-2.81-24.12-4.77-35.71-9-6.14-3.12-12-7-19.42-6.49-3,.2-5.65-1.86-8.14-3.53a33.87,33.87,0,0,0-13.23-5.47c-5.82-1-10.49-5-15.84-7.21-1.34-.57-3.24-2.66-4.23-.57-.91,1.92-1.72,4.57,1.76,6.18,4.49,2.07,4.56,3.31,2,7l-1.83.05a53.76,53.76,0,0,1-12.1,8.15c-3.47-.34-6.63-1.71-9.84-2.94-4.46.71-4.48-2.17-4.27-5.25,1.8-3.31,4.3-2.2,6.79-1.05a40.45,40.45,0,0,1-15.23-11.54c-1.65-2.08-4-3.38-6.2-4.83-1.49-1-3.75-1.56-3.39-3.78.41-2.48,2.66-3.12,4.9-3.36a3.32,3.32,0,0,0,1.43-.21l7.7-1.73c-1.75-1.89-3.57-2.12-5.21-2.66-33.77-11.26-67.58-22.39-101.3-33.81-25.45-8.62-49-20.64-68.05-40.17A43.53,43.53,0,0,1,10,53.89c3.69-.51,6.32,1.85,8.35,4.11,8,8.91,18.11,14.14,29.29,17.69,1.26.39,2.87.29,3.71,1.28,3.37,4,7.85,4.32,12.54,4.15,4.94,3.51,10.89,4.07,16.51,5.13,8.24,1.55,16.22,4.23,24.43,5.59,9.19,1.53,17.93,4.81,27.06,6.22,20.14,3.12,38.79,11,58,17.24,8.19,2.67,16.72,4.8,24.33,8.56,6.41,3.16,14.13,2.48,19.67,7.58.95.87,2.57.92,3.84.87,3.8-.16,6.88.73,8.62,4.49a2.83,2.83,0,0,0,2,1.46c7,1.32,12.79,6.72,20.41,5.69a1.82,1.82,0,0,1,1,.13c15.54,7.23,32.76,7.62,49,12.06.32.09.64.19,1,.25,2.91.77,5.9,2.61,8.56-.59,4.2-1.07,7.76,1.17,11.48,2.32,10.46,3.24,21.18,5.1,32,6.7,2.74.41,5.6.7,8,2.4,2.66,5.92,8.84,6.55,13.79,8.78,3.16,1.42,5.87,3,7.78,5.81,2.6,3.78,4.69,7.92,8.93,10.33,1,.59,1.07,2,.47,3.16-3.82,3.78-8.9,3.44-13.57,3.72-6.45.4-13,.66-19.42-.4A7.63,7.63,0,0,0,374.1,199.08Z"/><path class="cls-2" d="M764,68.82c-5.9,4.54-12.71,6.2-20,7.57-14.5,2.73-28.84,6.36-43.18,9.91-36.58,9.07-73.53,16.41-110.36,24.31-6.94,1.49-13.94,2.74-20.9,4.1-2.34,4.14-6.8,3.19-10.39,4.25-1.53.45-3.26.06-4.85.48a8.15,8.15,0,0,1-4.88-.32c-7.17-2.38-15-2-22-5.14-1.27-.57-3.56-1.21-3.91.44-.43,2,1.5,3,3.58,3,1.17,0,2.33,0,3.49,0,4.6,1.93,8.81,4.72,13.68,6a29.85,29.85,0,0,1,9.82,3.12c2.24,1.27,3.94,3.1.13,4.81-7.61.28-14.73-2-21.76-4.47a14.68,14.68,0,0,0-8.25-.71c-10.57,2.25-21.24,4-31.81,6.27a23.43,23.43,0,0,1-4.94.13c-4.16,1.36-7.76-1.16-11.65-1.7-3.25-.46-6.42-1.73-9.82-.75-2.28.67-3.59-1.35-5.33-2.17,6.62,3.83,13.12,7.85,20.4,10.48,2.13.77,6.29,1.46,3.08,5.63-5.49,1.45-10.31-1.21-15.33-2.57-2.52-.68-4.81-2.11-7.32-2.91-2.84,0-5.47,1.26-8.31,1.45a2.93,2.93,0,0,0-2.9,2.88c-.14,2,0,4.51-2.4,4.93s-3-2.11-4-3.79a1.53,1.53,0,0,0-.79-.57c-1.57-.64-2.69.74-4.07.94-2.13.92-4.43,1.18-6.62,1.88-2.56.4-4.86-.54-7.14-1.47-1.27-.51-2.76-1.34-2.64-2.67.69-7.65-5.56-7.12-10-8.71a173.25,173.25,0,0,1-15.55-11.22c-1.62-1.26-2.87-2.75-2.58-5a4.55,4.55,0,0,1,4.31-3.5c21.81-2,43.5-5.07,65.26-7.51,9-1,18-2.64,27-3.48,11.6-1.08,23-3.7,34.65-4.27,7.37-.35,14.65-2.56,22-3.54,9.47-1.27,18.89-2.87,28.46-3.55,5.72-.4,11.45-1.75,17.19-2.58s11.54-2,17.34-2.83a27.09,27.09,0,0,0,7.64-2q30-4.69,60-9.4c18.46-2.94,36.9-6,55.39-8.84a16.42,16.42,0,0,0,4.49-1.8c2.07.42,4.17.5,6.19,1.42,4.89,2.21,9.77-.48,14.68-.39C761.75,65.17,764.21,65.14,764,68.82Z"/><path class="cls-3" d="M1.25,39.94a10.54,10.54,0,0,1,0-10c.47.19,1.09.45,1.16.87.77,5.21,4.5,6.33,8.92,6.61,9.27.58,17.55,4.75,26.26,7.34a15.73,15.73,0,0,0,9.69-.22c7.08-2.21,14.32-2.87,21.44.13,4,1.69,8.19,1.4,12.28.8s6.5-4.24,7-9.21c1-9.55,1-9.55,8.75-4.67A13.84,13.84,0,0,0,113,30.75c2.67-2.1,2.29-6.86-1-10-1.78-1.7-4.74-2.91-1.55-5.73,2.11-1.86,5.19-.95,7.15,2.07A14.18,14.18,0,0,1,120,24.56c0,2-.07,4.69,3.41,3.61,0-.26,1.15-.31.23-.64s-2.13-.4-2.77-1.46c-.4-6.87.11-7.69,5.38-7.54-5.22-2.53-9-6.78-15-5.74a4.93,4.93,0,0,1-3.7-1.25c-7.72-5.81-16.09-8.66-26-7.19-2.51.38-7.48,1.55-7.37-4.22,17.66-.66,34.63,3.44,51.64,7.36,37.87,8.74,73.58,24,110.11,36.72,15.85,5.53,31.61,11.34,47.35,17.17,3.23,1.2,6.13,2.57,8.42-2.15-.69,5.46,2.91,6.27,6.31,7.5q54.42,19.62,108.79,39.34a26.12,26.12,0,0,1,5.53,2.66,67.89,67.89,0,0,1-24,2.2c-4.54-1.82-7.67,3.21-12,2.48-3.35.34-6-1.54-8.85-2.81-8.33-3.75-17.25-5.56-26-8a11,11,0,0,0-4.92.27c-5.1-2.42-9.74.5-14.57,1.3-3.84-1.15-2.43-5.76-5.07-7.7-1.25-.73-2.12-2.21-3.88-1.94-3.92-1.7-4.06-2.79-.76-6.21-1.92-.1-1.9,2.06-3.16,2.71-1.76.81-2.29,2.08-1.47,3.87a6.63,6.63,0,0,1,.63,4.18c-.87,2.33-2.56,3.36-4.92,2.58-2.65-.88-3.79-2.83-3.19-5.65a24.56,24.56,0,0,0-.42-8.2c-.71-3.94,2.46-6.21,3.93-9.21.78-1.61,3-3.56.16-5-2.4-1.19-5.14-1.64-6.71,1.69-1.4,3-1.3,6.48-3.12,9.32-1.14,1-2.23,2-1.38,3.73s.25,3.5-.12,5.26c-1.56,3.54-4.33,3.64-7.52,2.74-3-.85-4.35-2.79-4.29-5.89.06-2.66-.05-5.33.05-8-.11-1.69,1.37-3,1.32-4.59-.08-2.39-2.22-2.63-3.87-3-3.16-.63-1,2.27-1.94,3.21-1.42,3.29,1.21,6.56.09,9.86a3,3,0,0,1-3.8,1.78c-3.22-1.92-2.79-5.4-3.28-8.32a67.34,67.34,0,0,0-1.93-9.13,33.37,33.37,0,0,1,.77,12.86c-.69,1.88-1.44,4.14-3.94,3.44-3-.86-3-3.88-3.59-6.4.38-2.13-.71-4-1-6.07a6,6,0,0,1-.16-1.46c-.57-6.83-6.1-12.2-12.45-12-2.39.08-2.19,2.59-3.4,3.78-3,2.72-.23,5.9-.68,8.83-.06,2.56-1.31,3.75-3.9,3.35-3.86-1.89-3.5-6.08-5.06-9.23a4.67,4.67,0,0,1-.1-1.49c.1-1.54,1.57-2.78,1.48-4.15-.11-1.54,1.31-5-3-3.49-3.86,1.32-4.92-2.3-6.78-4.8a5.42,5.42,0,0,1,.69,3.59,3.39,3.39,0,0,1-.64,1.27,6.51,6.51,0,0,1-4.71,1.41,3.46,3.46,0,0,1-1.31-.52c-2.22-2.18-1.8-5.6-4.1-8.13a10.49,10.49,0,0,1-.24,3.13c-2.14,3.33.61,6.43.46,9.66-.06,2.46-.88,4.17-3.75,3.91-2.07-.71-2.74-2.42-2.66-4.33.35-9.29-3.37-17.35-6.74-24.12a16.85,16.85,0,0,1,2.48,12.1c.08,2.67,1.19,5.21.9,7.91-.35,2.37-.68,4.76-4,4.45-2.51-.79-3.14-2.94-3.71-5.13a10,10,0,0,1,.66-3.71c.68-6.41-4.19-13.87-10.24-15.75-1.41-.44-2.56-.5-3.37,1a6.9,6.9,0,0,1-2.88,3.3,4.08,4.08,0,0,1-3.54-.52c-3.95-3.64-3.87-9.27-6.55-13,.68,2.84,3.81,5.88,1,9.58a3.47,3.47,0,0,1-2.81.41c-4.17-2.69-6-7.37-9.25-10.9-2-2.21-3.93-4.48-6.21-6.7,1.42,4,4.5,7.34,2.72,11.82-3.22,3-3,5.17.9,9.45a4.24,4.24,0,0,1,.56,4.24c-2.77,3.26-4.67,7.81-10.28,6.92a13,13,0,0,1-3.39-.65c-1.77-.81-3.1-2-3-4.14.13-2.52,2.18-3,3.95-3.4a6.17,6.17,0,0,0-4.73,3.5c-2.19,3.91-4.07,4-7.58.64.47-5.9,1.27-11.8.53-16.78-.23,3.75.64,8.44-.31,13.2-.72,3.69-2.86,5-5.92,4.27-3.54-.81-7.83-.37-10-4.44-.31-.58-.68-.84-.27-.32,0,0-.19.2-.3.36a6.14,6.14,0,0,0,.41,4.08,17.83,17.83,0,0,0,4.78,4.34c1.72,1.12,2.66,2.89,1.43,4.69-2.19,3.2-5.76,3.72-9.31,3.78-3.09.06-5.57-1-6.11-4.42-4,5-9.37,3.77-14.6,2.78-1.93-.36-3.66-1.47-5.77-1.33-10.62.69-20.79-1.51-30.84-4.72a54.39,54.39,0,0,0-13.22-2.34c-7.45-.45-14.19-3.54-20.61-7-6.89-3.74-13.91-6.83-21.71-8A13.12,13.12,0,0,1,1.25,39.94Z"/><path class="cls-4" d="M74.28.13c2,3,5.61,2.8,8,2.29C92.61.24,100.94,3.87,108.73,9.91a3.43,3.43,0,0,0,3,1.07c7.32-1.24,15.5,4.26,17.1,11.35a6,6,0,0,1-.09,1.74c-1.39.2-1.64-.71-2-1.39-.83-1.39-1.48-3.71-3.31-3.08-2.22.77-.13,2.37.17,3.61.46,1.87-1.78,1.7-2.21,2.91.94,1,2.69,1.2,2.91,2.93-.3,1.41-.82,2.68-2.57,2.37-1.47-.26-2.08-1.41-2.48-2.81-1-3.34-2-6.68-3.12-10-1-3-2.85-4-6.22-1.45,4.66.68,5.78,4.06,6.77,7.5,1.69,5.84.18,8.42-5.75,9.89-1.12.28-2.67,1.08-3.3.63-3-2.19-4.53,9-8.17.8C98,32.68,91.89,34.16,92,28c-2.34,2.72-1.65,4.74-1.68,6.53C90.18,43.87,86.21,47.89,77,48a25.7,25.7,0,0,1-11.12-2,20.55,20.55,0,0,0-16.52.27c-6.8,3.18-12.67,1.15-18.18-1a104.07,104.07,0,0,0-22-6c-7.88-1.3-7.88-1.3-7.95-9.28C3.26,25.31,7.39,23,11.52,21a51,51,0,0,1,12.09-4.46,18.85,18.85,0,0,0,10.63-5.69c6.54,3.66,13.2,1.56,19.84.52a31.7,31.7,0,0,0-15.74-.5c-1.46.34-2.78,1.12-4.23.11-1.22-2.33.8-2.74,2.11-3.57C45.27,1.69,55.32,0,65.8,0,68.63,0,71.45.09,74.28.13Z"/><path class="cls-5" d="M521.18,96.81c.44-6.24,4.49-11,7.51-15.87Q548.19,49.35,567,17.35c.56-1,1.64-1.89,1.16-3.14-2-5.19,1.31-4.25,4.26-3.77a6.55,6.55,0,0,1,.93.35c14.58,4.48,15.17,5.66,12.62,20.42-3.08,17.87-5.89,35.8-8.75,53.71-.33,2-.48,4-2.75,4.85A3.4,3.4,0,0,1,571,92.09c-6,.33-11.84,2-17.86,2.09-2.08-1-2.29-2.88-1.52-4.66C557.22,76.76,560.3,63,567,50.69a7.18,7.18,0,0,1,1-1.42C555,59.58,545.85,73.77,540,90.22a20.8,20.8,0,0,1-3.7,6.4c-3.34,1.34-7,1.18-10.42,2A4,4,0,0,1,521.18,96.81Z"/><path class="cls-6" d="M733.49,159.05c-12.63,3.33-25.53,5.35-38.36,7.67Q636,177.39,576.84,187.77c-1.14.2-2.32.2-3.48.29-5.14.88-10,.86-13.73-3.66-1-1.26-2.53-1.44-3.93-1.87-2-1-5.7.8-6-2.7-.3-3.68-4-7.68.46-11.2,3.62-2.18,7.86-1.74,11.64-1.86,15.93-.47,31.81-1.83,47.67-3,29.09-2.18,58.22-3.91,87.3-6.22,8.1-.65,16.23-1.11,24.34-1.59A22.37,22.37,0,0,1,733.49,159.05Z"/><path class="cls-7" d="M486.52,131.12c13.19-2.49,26.39-4.93,39.55-7.53a7.77,7.77,0,0,1,5.28.42c7.25,3.57,15.23,4.36,23,6,2.39,1.38,4.16-1.9,6.65-.43-1-2.88-3.64-3.65-5.1-5.54-1.34-1.74-3.7-3.06-2.28-5.87l16-3.42c3.29.14,2.4,2.27,2.08,4.22q-3.8,23.46-7.54,46.93c-3.87,2.8-8.5.62-12.6,2-2.16.1-3.47,1.26-4.75,3-3,4-6.65,7.25-11.7,8.58-2.35.61-4.28.71-5.05-2.16.21-5.3,4.44-8.33,7.05-12.25,2.78-4.18,3.07-4.42-1.6-6.37-9.3-3.88-17.84-9.51-27.73-12-5.36-1.17-9.5-5.32-15-6.08-2.53-.75-4.23-2.62-5.79-4.56C485.79,134.54,484.73,132.89,486.52,131.12Z"/><path class="cls-8" d="M1.25,39.94l1,.11c11.41,2.31,20.48,10.16,31.05,13.76C47.7,58.74,61.35,67.1,77.3,67c8.09-.07,15.36,4,23.35,4.15,10.83.15,21.36,2.77,32.07,3.86a108.83,108.83,0,0,1,19.39,4.33c14,4.13,28.51,6.64,42.2,11.78,10,3.73,20.12,6.86,30.18,10.25,9.69,3.26,19,8.07,29.45,8.82,3.08.22,5.71,1.83,6,5,.37,4.54,3.24,5.19,6.79,5.59,3.72.42,7.69.1,10.79,2.9a1.92,1.92,0,0,1,0,1.59c-.56.35.27.06-.32.38-5,2.7-23.41,1.73-27.77-1.51a9.09,9.09,0,0,0-3.59-1.68c-16.93-3.59-32.74-10.62-48.94-16.33-17.15-6.05-34.79-9.83-52.35-14.09-6.39-1.56-12.5-4.15-19.18-4.66-12.66-1-25.23-2.83-37.83-4.33a13.9,13.9,0,0,1-4.65-1.17c-4.16-2-8.17-4-13.1-3.91-3.38.07-6.7-1.45-10-2.64a220.86,220.86,0,0,1-48-24.66,50,50,0,0,1-8.52-6.77A4.33,4.33,0,0,1,1.25,39.94Z"/><path class="cls-9" d="M199.37,183c-7.16,4-12.84,10.58-21.35,12.32a19.9,19.9,0,0,1-8.89-.15c-19.5-4.81-39.32-8.66-56.92-19.14.54-3.56,3.32-3.36,5.62-2.88,7.71,1.6,13.21-2.14,18.66-6.78,3.71-3.17,7.12-6.44,9.38-10.81,2.13-1.12,4.22-.51,6.27.23,8.46,3.06,16.83,6.29,24.3,11.47,4.34,3,9.62,3.56,14.53,5.1C197.18,174.25,198.91,176.43,199.37,183Z"/><path class="cls-10" d="M374.1,199.08c1.07-2.71,3.46-2.06,5.52-2.1,8.39-.16,16.83.57,25.13-1.21,1.9-.4,3.95-.53,5.57-1.83,1.91-3.26,4.92-3.46,8.19-3,6.76,3.54,14.27,3.88,21.61,4.7,4.25.48,8.53.43,12.71,1.72,5.27,1.63,10.85-.2,16.2,1,12.18-1.38,24.41-.79,36.62-1a3.74,3.74,0,0,1,2.68,1.16c1.11,2.81-.72,4.31-2.59,5.78a59.09,59.09,0,0,1-25.81,11.28c-9.37,1.78-19.05,1.76-28.65,1.33-21.23-.88-41.5-6.57-61.68-12.6C384.37,202.82,379.27,200.86,374.1,199.08Z"/><path class="cls-11" d="M199.37,183c-.37-.33-1-.59-1.09-1-2.69-8.16-10.41-8-16.72-9.81-4-1.15-6.9-3.89-10.38-5.75A165.12,165.12,0,0,0,146.38,156c-2.42-1.21-2.08-3.55-2.28-5.64a23.87,23.87,0,0,0-6-13.89c-1.39-1.57-4.08-3.1-2.71-5.24,1.08-1.69,3.87-1,5.93-.28a4.94,4.94,0,0,0,3.31.86,2.43,2.43,0,0,1,2.07-.65c11.44,2.55,22.25,6.33,30.39,15.4,1.6,1.77,4,2.29,5.92,3.62,5,3.5,8.19,9.09,13.7,12.09,1.18.64,1.39,2.21.63,3.58.3,2.45.19,5.1,3.12,6.22a8.29,8.29,0,0,0,.9,6.15C202.82,180.86,201.8,182.12,199.37,183Z"/><path class="cls-12" d="M451.28,217c13-1.4,26.14-1.4,38.47-6.61,6.75-2.85,13.34-5.86,18.61-11.13,1.25-3.74,4.87-5,7.56-7.26a3.9,3.9,0,0,1,1.52-.1,18.39,18.39,0,0,1,2.16.75c4.47,4.37,9.71,5,15.83,4.43,8.37-.78,16.83.07,25.27-.56,4.28-.31,7.55-2.81,11.49-3.59.74,4.89-1.52,7.8-5.93,9.64A149.26,149.26,0,0,1,545.33,209c-2.24.57-5.05.71-6.17,2.85-2.32,4.43-7.47,4.43-10.75,7.46-1.82,1.68-4.89-.85-7.17-2.05s-4.13-2.73-6.92-2.1c-15.26,3.44-30.79,2.81-46.25,2.76C462.47,217.91,456.79,218.84,451.28,217Z"/><path class="cls-13" d="M141.29,131l-5.88.29c9,6.55,11.57,15,11,24.76-.49,2.1-.9,4.21-1.48,6.29-.5,1.76-1,3.59-3.61,3-1.68-.39-2.77.93-3.76,2A22.44,22.44,0,0,1,118,175.13c-1.93-.15-4-.5-5.77.85a7.89,7.89,0,0,1-5.37-4.13c-2.07-3.61-5.29-4.36-8.79-4.31-8.7.12-17.33-1.23-26.15,0-4.31.58-9.09-2.25-13.65-3.53,1.56-2.75,4.3-2.17,6.69-2.21,9.82-.15,19.64-.09,29.46,0,3.25,0,5.55-.91,6.17-4.39,2.77-2.89,4.27-6.31,5.6-10.17,2-5.76,4.36-12,12-12.73,1.72,1.59.91,3.25.21,5-1.6,4-3.31,8-5,11.95-2.53,6.09,0,14.11,5.18,17,6.95,3.91,16-1.29,16.23-9.31a16.45,16.45,0,0,1,.59-4.93c2.87-8.67-.81-14.72-9.82-16.3-2.62-.46-5.28-1-6.67-3.78.06-1.49.7-2.35,2.31-2.22C127.9,130.7,134.49,128.5,141.29,131Z"/><path class="cls-14" d="M551.88,92.72c7.64,0,15.08-1.59,22.56-3,6.67,1,12.9-1.81,19.41-2.35,8.22-.69,16.37-2.16,24.55-3.28A8.29,8.29,0,0,1,612.75,87a57,57,0,0,0-12.45,2.79c-2.89,1.06-6.79.9-10.26,1.34C572.79,93.29,555.5,95,538.4,98.46c-5.71,1.15-11.57,2.87-17.7,1.85-4.45-.74-8.69,1.52-13.07,2.16-9.2,1.34-18.52,1.89-27.66,3.57-9.55,1.77-19.36,1.53-28.81,4.11-3,.81-6.17-.09-9.35.57-13.61,2.82-27.57,3.07-41.33,5a8.88,8.88,0,0,0-5.59,2.39c-5.28,1.1-9.22-1.56-9.3-6.27,12.37,2.25,24.38-1.22,36.51-2.4,16-1.56,32-3.55,47.93-5.51,16.62-2,33.23-4.25,49.84-6.42a4.21,4.21,0,0,0,1.31-.68c5.07-.34,10.2-.33,15.05-2.22C541.18,91.76,546.37,90.88,551.88,92.72Z"/><path class="cls-15" d="M755.71,55.28c8.73-12.55,16.78-25.52,24.46-38.73,1-1.72,2.05-3.42,3.14-5.08,1.68-2.55,4.19-1.92,6.24-1,2.23,1,.79,2.89.23,4.31q-8.5,21.54-17.11,43A23.82,23.82,0,0,1,768.34,65c-6.08.13-12.16.24-18.17,1.4a2.44,2.44,0,0,1-2.89-1.47c-.6-1.62.78-2.26,1.78-3.14C751.38,59.74,755.51,59.5,755.71,55.28Z"/><path class="cls-16" d="M224.2,166.82c1.56-4.23-1.21-5.16-4.4-5.77-2.17-.41-4.74-.47-2-3.72,1-1.21,0-2.87-.22-4.32-.56-3.22.47-4.6,3.77-3,3,1.45,6,2.93,8.94,4.41,4.55,2.26,8.72,5.51,14.22,5.25a2.65,2.65,0,0,1,1.36.57c9.56,6.19,20.49,9,31.05,12.78a9.61,9.61,0,0,1,4.43,3.86c-4.46-.77-8.37-3.06-12.59-4.49-1.28-.43-3-1.88-4-.16s-.21,3.56,1.36,4.83c.89.71,1.9,1.29,4.07,2.73A67.52,67.52,0,0,1,252,177.16c-7.28-1.95-15-3.17-20.57-9.15C229.54,166,226.6,167.33,224.2,166.82Z"/><path class="cls-17" d="M66.32,114.94c5.43-2.36,7.3-1.25,6.7,4q-2.2,19.49-4.45,39c-3.91,3.72-8.75,3.21-13.53,3-3.27-1-4.09-2.9-2.71-6.07C58,141.89,62,128.37,66.32,114.94Z"/><path class="cls-18" d="M551.45,165l12.7.82c6.66-1.73,13.54-1.1,20.3-1.67,18.32-1.56,36.72-2.1,55.08-3.31,22-1.45,43.94-3.2,65.92-4.79q9.16-.66,18.36-1.08c3.81-.18,7.24.81,9.68,4-17.52-4.81-35,0-52.47.4-11.28.27-22.54,1.61-33.81,2.48-20.87,1.61-41.74,3.39-62.63,4.77-11.79.77-23.55,1.58-35.25,3.24C547,167,550.53,166.58,551.45,165Z"/><path class="cls-19" d="M197.31,165.86c-.82-1.94-2.42-3-4.17-4.07-2.95-1.79-5.91-3.55-7.31-7.13-.8-2-3.14-2.89-5-3.88a30.22,30.22,0,0,1-7.08-4.57c-6.93-6.63-15.56-10-24.47-12.79a17.9,17.9,0,0,1-3-1.62c2.28-2.9,5.48-1,7.94-.92a38.33,38.33,0,0,1,16.19,4.27c3.6,1.52,7.1,3.54,11.07,3.73,2.38.11,2.34,1.82,3,3.18-1.84,1-1.3,5.58-5.82,3,11.31,6.65,17.68,18.75,31.89,21.41C204.82,169.49,201.24,166.07,197.31,165.86Z"/><path class="cls-20" d="M54.37,159.05l14.19-1.11A118.19,118.19,0,0,0,98.33,155c2.06-.77,3.87-1.06,4,2,0,1.5,0,3-.09,4.49-.08,2.29-1.1,2.92-3.52,2.87-13.48-.28-26.95-.29-40.43-.39a19.81,19.81,0,0,1-8.65-3.18C50.09,157.19,53.09,160.48,54.37,159.05Z"/><path class="cls-21" d="M3.24,43.92c7.79,3,14.43,8.15,21.42,12.5,12.4,7.71,26.08,12.51,39.13,18.69a10.09,10.09,0,0,0,4.84,1c5.38-.38,10.06,1.58,14.71,3.82-1.78,3.4-4.45,3.56-7.91,2.75-6.08-1.42-11.87-3.92-18.1-4.75a8.21,8.21,0,0,1-3.87-.71c-4.41-1.8-8.73-3.72-13.5-4.7-6.26-1.3-11.48-5-16.06-9.39C17.63,57.08,9.55,53.1,4.24,46Z"/><path class="cls-22" d="M572.19,192.91c-1.79,3.5-4.37,4.85-8.57,5.31-11.59,1.25-23.21.15-34.77,1.23a21.58,21.58,0,0,0-3.81,1c-.85.24-2.28.07-2.1-.52,1.31-4.32-3.38-3.79-4.62-6,1.5-2.18,3.83-1.56,5.91-1.72,7.28-.58,14.53,0,21.79.53a58,58,0,0,0,7.46,0c6.2-.38,6.51-1,3.54-6.35-1-1.74-2.14-3.46-.68-5.5.16,0,.38,0,.47.11,4.5,4.74,11.2,4.32,16.55,7.07Z"/><path class="cls-23" d="M385.59,111.82c2.49,3,5.79,4.8,9.3,6.27L413.18,132c2.62.7,4.6,2.46,6.71,4,1.11.82,2,1.84,1.69,3.31-.32,1.72-1.74,2.2-3.22,2.61-4.86,1.37-9.43,1.28-13.38-2.37a5.91,5.91,0,0,1-2.94-3.26c-2.55-6-7.94-9.16-12.85-12.79-3.43-2.21-6.76-4.59-10.18-6.82-1.62-1.06-3.39-2.17-2.83-4.63,4-.94,7.89-3.52,12.22-1.15C387.59,111.6,386.2,110.48,385.59,111.82Z"/><path class="cls-24" d="M4.24,46c8.22,6.34,16.41,12.72,24.69,19,2.1,1.59,4.34,3.5,6.78,4,7.43,1.65,14.38,4.62,21.54,7a12.55,12.55,0,0,0,3.07,2.34c1.18,1,3,1.22,3.24,3.18l-.37.59c-4.84,1.55-8.31.73-12.77-2.86C46.32,75.93,40,74.79,34.7,72.56,28.83,70.09,24.22,66.26,20,61.94a58.74,58.74,0,0,0-10-8A17,17,0,0,1,4.24,46Z"/><path class="cls-25" d="M755.71,55.28c.93-.2,1.8-.92,3.11-.2-2.21,4.35-6.52,6.28-10.6,9.42a13.54,13.54,0,0,0,8.72-.6A12.19,12.19,0,0,1,768.34,65c-1.12,1.62-2.33,3.15-4.3,3.81-2.57-3.29-6.12-1.58-9.26-1.72-1.62-.08-3.26.55-4.91.76-4.47.6-8.67.31-11.64-3.76C744.65,62.34,750.78,60,755.71,55.28Z"/><path class="cls-26" d="M54.37,159.05c-1.36,1.21-3.53.19-4.76,1.75C48.19,160.35,47,159.63,48,158c7.27-12.14,11.17-25.64,15.8-38.84.54-1.54,1.08-3.15,2.5-4.19-.3,6.8-2.95,13-4.87,19.43-2.18,7.27-5,14.37-7.53,21.52C53.48,157.11,52.36,158.25,54.37,159.05Z"/><path class="cls-27" d="M210.27,175a13.77,13.77,0,0,1,12.1-8.15,4.06,4.06,0,0,0,1.39,3c3,3,7.4,4.88,7.74,9.94C224.25,179,217,178.08,210.27,175Z"/><path class="cls-28" d="M102.3,157c-.64-2-2.08-2.45-4-2a7.32,7.32,0,0,0,5.34-5.66c2-7.09,6-12.85,12.66-16.42,1.48-.79,3-2.36,4.93-1l-2,1.91a1.09,1.09,0,0,1-1.11,1.14c-6.46,2.29-9.3,7.44-10.74,13.65C106.61,152,105.86,155.32,102.3,157Z"/><path class="cls-29" d="M170.38,135.15c-4.82-1-9.38-3-14.38-3.16-3.25-.08-6.5-.13-9.75-.19l-1.65,0c1.54-3.56,4.62-1.74,7-1.77C158.27,130,164.76,131,170.38,135.15Z"/><path class="cls-30" d="M231.5,179.86l-7.74-9.94c4,.78,6.07,4.18,8.66,6.77C233.57,177.84,232.91,179.12,231.5,179.86Z"/><path class="cls-31" d="M379.33,168.94c-7.56-2.56-15.54-2.84-23.31-4.26-9.8-1.79-19-5.59-28.75-7.72-1,1.2-2.24,1.19-3.61.63a92.21,92.21,0,0,0-19.37-5.49,26.82,26.82,0,0,1-9-3.95c-.37-.33-.7-.7-1-1.06-1.55-1.57-4.31-2.67-3.09-5.52s4-3.16,6.74-2.83a11.84,11.84,0,0,1,2.44.4c4.58,2.66,10.15,3.58,13.88,7.76,3.3,3.14,7.19,1.53,10.77,1.06,6-.77,11.82-2.31,17.77-3.31,8.5,1.41,17.07,2.42,25.59,3.64a176,176,0,0,1,21.39,4.58c5.11,1.4,9.83,1.51,13.74-2.77,3.52-1.07,6.71-1.08,8.59,2.83-1.27,6.22-6,8.2-11.43,9.29-4,3-7.07,7.53-12.69,8C384.84,171.44,381.89,171.5,379.33,168.94Z"/><path class="cls-24" d="M300.36,140.83h-1c-2.4,0-5.67-1.29-6.87,1.18-1.31,2.74,3.14,2.73,3.85,4.91-4.75,3.22-8.36-.68-12.32-2.08-1.53-.54-2.73-1.87-4-2.89-.9-.71-1.87-.86-2.6.12s-.2,1.87.49,2.67c1.44,1.67,3.37,2,5.42,2,6.71.13,12.91,2.19,19.17,4.48,4.1,1.49,8.56,2.22,12.87,3.26,2.05.49,4.72.43,5,3.56-11.91-1.61-23.39-5.2-35.17-7.42-3.91-.74-8.29-.39-11.72-2.06-8.17-4-17.37-4.1-25.56-7.73-1.6-.71-3.58-1.54-3.86-2.9-1-4.7-4.34-4.1-7.6-4a6.37,6.37,0,0,1-4.13-1.49c-3-2.26-6.13-4.08-10.13-3a3.09,3.09,0,0,1-2.78-.81c-6.38-5.25-14.52-6.51-21.93-9.19-17-6.17-34.21-12.06-51.65-16.91-14.5-4-29.64-5.79-44.18-9.74-11.2-3-22.74-4.43-33.81-7.89-1.76-.54-3.5-1.16-4.61-2.79l.12-.16c3.9-3,7.66-.17,11.33.52,4.07.75,8,2.07,12.23,2a54.66,54.66,0,0,1,7.67,1.88,36.9,36.9,0,0,0,16.9,3.27c4-.26,7.66,2,11.48,3,14.79,4.07,30,6.62,44.33,12.41,5.26,2.13,11.24,1.38,16.56,4.21,11.13,5.92,23.41,8.93,35.32,12.86,3,1,5.71,2.72,8.68,3.74,6.22,2.14,12.45,4.52,19.24,2.64,3.52,1.28,7.11,2.36,10.68,3.49a42.82,42.82,0,0,1,13.63,2.63,5.76,5.76,0,0,0,4.31.21c3.59-3.39,7.08-5.93,12.75-3.88,3.28,1.18,7-1.21,10.58-1.95,5.53-1.16,6.7-.49,9,4.93a6.93,6.93,0,0,1-.33,3.85,8.13,8.13,0,0,1-3.84,3.51C302.6,141.71,301.59,140.47,300.36,140.83Z"/><path class="cls-32" d="M379.33,168.94a34.52,34.52,0,0,0,9.06-.9c3.17,1.91,5.93,4.66,10.32,3.47,2.11-.57,3.24,1.42,3.61,3.32.55,2.85,2.52,4.12,5,5,4,1.46,7.82,3.6,12,4.89,2.31.72,4.78,1.67,5.47,4.55-1.05,3.48-3.62,3.45-6.46,2.79l-7.94,1.88c-4.63-1.81-7.87-4.56-9.83-9.58-1.63-4.19-6.09-6.06-10.52-7.62C385.82,175.27,380,175.36,379.33,168.94Z"/><path class="cls-33" d="M336.33,170.9c4.16-1.85,8.48-1.31,12.65-.37,3.45.78,4,3.22,1,5.18-8,5.19-16.9,6.52-26.23,4.44-1.42-.32-3-1.06-3.24-2.77-.33-2.07,1.42-2.88,2.79-3.73a15.74,15.74,0,0,1,9.94-2.67C334.26,170.86,335.33,172,336.33,170.9Z"/><path class="cls-34" d="M320.32,158.08c-12.4-3.6-24.47-8.77-37.6-9a11.22,11.22,0,0,1-8.86-4.75c-2.11-2.69,2-3.76,3.28-5.59.88-1.28,2.54-2.21,3.64-.26,3.44,6.15,9.63,7,15.57,8.45l30.92,10c1.05,1.73,2.07,3.54-1.44,2.82A54.66,54.66,0,0,1,320.32,158.08Z"/><path class="cls-35" d="M336.33,170.9c0,.92,1.63,2,.54,2.53-2,.91-2.56-1.38-3.63-2.45,0-.61-.24-1.66,0-1.76C334.89,168.45,335.23,170.41,336.33,170.9Z"/><path class="cls-36" d="M493.22,139.28c5.65.45,10.34,3.47,15.32,5.73,1.34,1,3,1.42,4.3,2.42,2.09,1.55,6.54.79,6.61,3.24a16.34,16.34,0,0,1-3,9.13c-4.56,6.49-9.68,12.53-16.69,16.63a4.25,4.25,0,0,1-2.92.85,97.51,97.51,0,0,1-21-3.73c-7.92-2.25-16.26-4.74-22.42-11-.9-5.68,2.8-9.24,6-13,1.78-.27,3.29-.74,2.12-3.07-.59-1.16-1.76-1.94-2.13-3.26a6.43,6.43,0,0,1,2-6.78c7.46,2.78,14.8,6,22.88,6.67,1.76.24,3.3-1.4,5.11-.67C492.63,143.65,492.74,141.26,493.22,139.28Z"/><path class="cls-37" d="M461.46,136.38c0,2.52-.09,5.05-.13,7.57.17,2.1,1.56,4.44-1.15,6l-6.08,11.91a4,4,0,0,1-.2,3.38c-3.41,4.88-6.64,9.93-11.33,13.76a6.25,6.25,0,0,1-4.58,1.6c-7.18.58-12.87-3.75-19.14-6-5.1-1.86-10-4.37-15.15-6.07-4.49-1.47-5.29-3.42-4.28-8.23,5.57.24,8.55-3.7,11.77-7.26,1-3.77,4-2.22,6-1.79,5,1.1,10,2.1,15.06,3.18a30.81,30.81,0,0,0,6.13.54c-1.72-3.7-7.34-4.8-6.08-10,2.2-1,4.33-2.33,6.93-1.87,2.25,1.13,2.77-1.41,4.21-2,1.74-.51,2.92-.21,3,1.93,0,1.42-.27,3,1.44,3.9C446.47,135.74,455.59,138.17,461.46,136.38Z"/><path class="cls-38" d="M432.27,144.94c1.71,3.14,4.77,4.94,7.27,7.29,1.57,1.47,3.26,2.82,2.87,5.66a172.46,172.46,0,0,1-26.8-4.66c-1.34-.34-2.87-2.25-4.42-.23-2-1.78-4.58-1.35-6.87-2-1.39-1.06-1-2.6-1-4,.13-3.11-1.22-6.57,2.11-8.92,4.76,3.08,9.86,2.67,15.93,1.53L413.18,132c4.68.21,8.17,3.28,12.19,5.07,1.36.61,1.5,1.72.19,2.66-3,2.19-1.42,2.9,1,3.51C428.5,143.74,430.37,144.37,432.27,144.94Z"/><path class="cls-39" d="M493.22,139.28a18.21,18.21,0,0,1,2.5,3,3.59,3.59,0,0,1,.22,2.79c-.49,1.1-1.68.59-2.62.34l-9-2.39c-2.58-3.44-6.95-3.21-10.37-5A164.08,164.08,0,0,1,454.37,126a7.61,7.61,0,0,1,7.83.28c3.81,2.43,7.93,1,11.83,1.93,4.13,1,8.05,3.22,12.5,2.94C486.78,135.46,490.9,136.63,493.22,139.28Z"/><path class="cls-40" d="M553.61,118.13c2.84,3.88,6.75,6.7,10,10.15.9.95,2,2.16,1.27,3.49-.86,1.64-2.41.41-3.51.17-2.37-.53-4.91-.57-7-2-.47-2.45-2.83-1.75-4.3-2.48a67.23,67.23,0,0,0-6.7-2.51c-3.35-3.86-8.52-4.74-12.52-7.57-.9-.64.43,1.4-.67,1.57-3.28.56-6.2.24-8.26-2.86-.76-1.14-1.59-2.12-.76-3.57s2.09-1.47,3.44-1C534,114.88,544.27,114.46,553.61,118.13Z"/><path class="cls-41" d="M530.15,119c-1.47-2.15-4.91-2.12-6-5.92a80.14,80.14,0,0,1,19.78,10.73c1.08.81-.15.91-.6,1.19Z"/><path class="cls-42" d="M443.41,141.09c-.75,1.38-.15,3.62-2,4.18-1.23.37-1.92-1-2.22-2.2C440.68,142.56,441.68,141.05,443.41,141.09Z"/><path class="cls-43" d="M277.51,124.12c-5.77-.51-11.66-.37-17.11-2.71-2-.87-4.16-1.5-2.41-5.08,1.41-2.91-1.82-4.62-4.34-4-4,.91-7.22-.75-10.57-2-16-6-32.35-11.16-48.52-16.76-14.57-5-29.71-8.45-44.65-12.4a233.92,233.92,0,0,0-46-7.26,73.21,73.21,0,0,1-20.31-4.2c-2.78-1-6-.36-9-.52-10.76-.58-19.94-6-29.94-8.78C32.12,56.94,21.83,50,11,43.64c-2.71-1.58-6.88.14-8.82-3.59,9.07-.45,16.6,4.13,24.38,7.67a71.37,71.37,0,0,0,23.76,6.54c9,.78,17.47,5.18,26.62,6.18a77.35,77.35,0,0,0,7.9.28c3.37,0,6.58-1,10.2,1.36,5.07,3.32,11.38.57,14.37-4.93.57-1,1.06-2.1,2.53-1.75.12.15.32.29.31.41-.19,2.54-3.79,5.44-.25,7.51s7.19.11,10.47-1.43c2.46-1.15.28-2-.48-3.19-1.52-2.34-6.09-1.8-5.55-6,2.28-.83,4.33.52,6.51.64a5.13,5.13,0,0,1,1.35.2c3.32,1.12,6.67,4.49,9.91-.16a2.53,2.53,0,0,1,1.2-.6c3.11,2.18,4.89.06,5.7-2.34,1.2-3.56,3-4,6.15-2.57,1.78.82,4.05.71,6,3.21-3.32,0-5.4-3-8.11-.4-1.72,1.65-1.32,2.38.07,3.41,2.24,1.63,8.36.38,9.85-2.15a3.42,3.42,0,0,1,3.09-2c1.81.47,1.82,2.57,3.07,3.74,1.54-2,.61-4.46,1.92-6.24,1.28-1.45,1.54-3.94,4.1-4.12,2.79.47,2.91,3.29,4.37,4.94,1,4.11,3,7.84,4.8,12.07,2.69-2,1.18-5.59,3.68-7.06a3.69,3.69,0,0,1,2.83-.42c2.75.95,3.26,3.53,4.11,5.8,3,8.05,3.78,8.44,12.09,6a2.46,2.46,0,0,1,1.91.23c3,.17,3.22-1.84,3.26-4a1.7,1.7,0,0,1,1.89.69,10.44,10.44,0,0,1,1.15,5.13c-.34,3.84,1.64,3.2,3.92,2.23,2.66.1,3-1.65,3-3.71.72-.72,1.3-.27,1.88.21,1.7,2.1,1,4.75,1.75,7.92,1-3.5.35-6.42.89-9.2.25-1.3.1-2.69,1.72-3.21a5.79,5.79,0,0,1,.72,0c1.84,1.72,3.31,1.89,4.06-1l.21-.14c3.88,1.09,5.38,3.52,4.8,7.49-.48,3.28-1.89,6.25-3.41,10,2.65-1.07,4-4.15,6.76-2.6,2.2,1.24,2.27,3.93,3.79,5.66,1.29-.38.87-2.17,2.16-2.47,1.72-.27,2.54-1.07,1.71-2.87.83-1,1.76-.73,2.72-.23,2,1.51,2.59,3.76,3.3,6,1.5,4.69,6.7,8,11.36,7.42C260,88,260,87,260.15,86c.28-1.92,0-4.1,2.32-5.06.29,1.07.62,2.14.84,3.23s-.28,3.15,1.4,3.15c2.05,0,1.26-2.21,1.68-3.47,4.37,1.12,1.84,4.84,2.79,7.43,1.6-.07,1.72-2.31,3.28-2.36a2.59,2.59,0,0,0,3-2.18,1.69,1.69,0,0,1,1.37.16c1.64,1.66,1.51,3.88,2,6.61a63.33,63.33,0,0,0,1.11-9.37c0-1.52-.18-3.5,2.47-3,0,3.15.12,6.31,0,9.46-.08,3.37,2.58,3.42,4.73,4s4,.25,4.18-2.59c2.48-.72,1.89-4,4.17-4.93a3.46,3.46,0,0,1,2.9.1c3.17,2,.93,6.43,3.85,8.55-.76,1.9-.58,3.43,1.53,4.36s3.06.17,3.52-1.82c2-2.58-1.42-6,1.25-8.41,2.3-5,5.17-5,9.25-.2a49.2,49.2,0,0,0-5.59.83,1.3,1.3,0,0,0-.42,2.09c.12.15,1.1-.38,1.69-.6.95,1.15,1.82,2.33,1.46,3.93,0,.3-.16.65.13.87A2.59,2.59,0,0,1,317.35,95a2.65,2.65,0,0,1,2.94,3,6.76,6.76,0,0,0,2.11,5.15c-.07,2-1.21,2.49-3,2a4,4,0,0,1-.8-4.17c-.8,1.68.18,3.25.95,4.86-2.48,4.51-7.32,7-9.78,11.63-.89,1.69-3.32,1-5.1,1.07-2,.06-4,0-5.93,0-4.18,0-8.28-1-12.6.35-3.21,1-5.74,2.14-7.29,5.13A1.55,1.55,0,0,1,277.51,124.12Z"/><path class="cls-44" d="M376.18,112.08c4.16,4.12,10.07,5.79,14.1,10.1,3.66,6.85.85,15.87-6.18,19.9-7.69-.4-9.28-2.25-8.09-9.44-.87,5.18-2.3,6.46-7,4.52a41.51,41.51,0,0,0-18.25-3.36,2.87,2.87,0,0,1-1.2-.92c-1-1.49-.74-3.12-.6-4.78.83-9.77-2-17.92-10.49-23.57-1.22-.81-2.58-1.62-2.18-3.49,13.48-.05,25.84,4,37.67,10.13C374.65,111.53,375.43,111.78,376.18,112.08Z"/><path class="cls-45" d="M336.27,101c12.73,6.11,17.21,16.37,13.87,31.78-6.32,11.29-16.29,16.07-28.87,16.12-1.81,0-3.61.25-5.41.15-3.11-1.65-5.12-4.71-8.23-6.36a3.81,3.81,0,0,1-1.44-4.63c0-1.4,0-2.8,0-4.2.32-3.43-3-6.23-1.76-9.82.65-2.16.36-3.63-2.27-4.26-1.46-.36-3.85.06-3.89-2.63a24.47,24.47,0,0,1,3-.1c4.51.37,8.11-.37,10.67-5,1.6-2.88,4.84-4.85,7.35-7.23h0l3.14-1.83c2.25-.78,4.77-.9,5.09-4.34.26-2.73,2.38-2,3.47-.59C332.38,100,334,101.06,336.27,101Z"/><path class="cls-46" d="M262.47,80.94c-.06,2.64-.12,5.28-.2,7.93-.11,3.6-2.53,4.22-4.43,2.13s-3.26-1.86-5.6-1.63c-3.19.32-5-2.28-6.1-5s-1.71-5.68-2.54-8.53c.57-3.41-2.94-6.33-1.2-9.88,1.28-7.86,2-8.2,8.69-3.8.4.27.78.91,1.13.88,9.28-.74,7.73,6.7,9.08,11.94-2.36,1.22-3.39-1.87-5.43-1.67-2.21.1-2.28-3.92-5.09-2.61a5.32,5.32,0,0,0,.79,6.5c1.46,3.18,3.66.77,5.54.71,2.35.34,2.53-2.35,4.17-3C262.74,76.73,261.88,79,262.47,80.94Z"/><path class="cls-47" d="M201.07,64.92c-5.92,6.3-12.17,5.07-15.33-3.12-1-2.6-1.64-5.34-2.45-8-2.6-2.67-2.6-5.63-1-8.77,1.77-8,4.38-9,10.79-3.77,5.25,4.26,9.23,9.31,8,16.76-2.42,0-2.59-2-3.15-3.56s-1.15-3-3-3.32-1.83-4.79-5.09-2.63c-1.19,2.69-.61,5.13.95,7.45,1.44,3.46,4.89,2,7.34,3a4.32,4.32,0,0,1,.91,1C200.84,61.15,201.85,62.67,201.07,64.92Z"/><path class="cls-48" d="M164.51,48.12c-.07,2-.06,3.93-.23,5.89-.16,1.71.09,4-2.71,3.63-2-.28-3.82-1-3.4-3.79a25.51,25.51,0,0,0,0-3.91,4.27,4.27,0,0,0-.89-3.81c-.44-3.22-2.85-6.37-.35-9.7-.64-5.56-3.31-10.32-5.71-15.41,9.68,3.3,14.26,11.71,19.17,19.78,2,2.16,2.56,4.54,1.11,7.24a2.77,2.77,0,0,1-1.4,1l-3-5.51C161.65,42.4,165.66,46.75,164.51,48.12Z"/><path class="cls-49" d="M239.57,77.91c.47,2.21.94,4.41,1.44,6.71-4.46-.45-4.46-.45-8.42-9.18-1.79.65-2.08,2.46-2.82,3.83-1.54,2.8-3.51,1.09-5.13.47-2.28-.87-.78-2.42-.18-3.65.81-1.63,1.66-3.25,2.62-4.79,2.7-4.3,2-8.09-1.61-11.47-.73-3.26-3.47-5.47-4.79-8.77,6.09,0,7.18,5.55,10.25,8.42,2.56-.27-.68-5.48,3.89-4,3.78,1.22,2.87,4,2.5,6.49a45.38,45.38,0,0,1-1.77,6.16c-.62,0-1.66-.58-1.72-.18-.15,1.1.95,1,1.69,1.09Z"/><path class="cls-50" d="M180.48,53.63a40.86,40.86,0,0,1-.41,5.44c-.31,1.53.61,4.17-2.21,4.06-2.13-.08-4.1-.92-4.72-3.59-.82-3.54-2-7-3-10.48l.38-.2c4.09-1.39,1.06-5.24,2.61-7.5-.73-5.31-3.39-9.91-6.14-15.74,9.15,3.65,9.8,11.48,12.15,18.18C180.81,46.91,182.68,50,180.48,53.63Z"/><path class="cls-51" d="M297.83,87.89l-2.62.31c-2.63-.45-2.83-2.18-2.26-4.32a43.55,43.55,0,0,1,2.25-9.64c1.25-3.14,3.27-4.41,6.59-3.59,2.38.58,5.93.32,6.64,2.49.81,2.49-1.63,5-3.13,7.38s-2.6,4.54-3.89,6.82C300.35,88.38,299.08,88.07,297.83,87.89Z"/><path class="cls-52" d="M211.29,69c-.23.78-.49,1.55-.68,2.34-.31,1.3.21,3.3-2.29,2.73-1.85-.42-3.43-1.07-3.24-3.5.22-2.77.27-5.56.39-8.34,1.89-3.58.14-6.45-1.81-9.29-.33-6.3-2.87-11.76-6.59-16.86,3.84.12,3.89.08,6,2.85C209.71,47.81,211,58.25,211.29,69Z"/><path class="cls-53" d="M282.31,81.18c-2.23,4.26-.17,8.82-.93,13.16-.29,1.67,1,4.59-2.42,4.32-2.47-.2-3-2.12-2.82-4.41s.21-4.65.31-7c1-3.39-1.12-6.33-1.37-9.54a6,6,0,0,1-.39-1.43c0-2.08-2.46-4.56-.6-5.93s3.56,2.53,4.52,2.43c3.82-.41,5.4,1.18,6.39,4.5C285.81,80,284.74,81,282.31,81.18Z"/><path class="cls-54" d="M272.46,88.92c-.18,1.3-.27,2.62-.57,3.9s-.24,3.2-2.6,2.56c-1.72-.47-3-1.15-3-3.29.1-2.74,1.46-5.49.05-8.24.45-5.89-1.16-11.47-2.91-17.27,3.86-.39,5.1,2,6,4.72C271.5,77,271.65,83,272.46,88.92Z"/><path class="cls-55" d="M220.48,61c-.39,4.61.92,9.23,0,13.83-.24,1.12.37,3.14-1.81,2.69-1.6-.33-3.85-.35-3.69-3.07s.24-5.61.35-8.42c1.12-3.59-1.39-6.74-1.27-10.21-.29-1.3-.68-2.59-.84-3.9s-2.06-3,.09-3.7a3.32,3.32,0,0,1,4,2.31C218.43,53.94,219.41,57.47,220.48,61Z"/><path class="cls-43" d="M116.24,48.66a7.65,7.65,0,0,0,2.38-5.22c1,5.13,7.29,9.39,12.22,8.28,2.27-.51,2.67-2.44,3-4.15a39.56,39.56,0,0,0,.06-13.34c-.19-1.26-.94-2.49.19-4.21,2.37,7.75,1.26,15.32,1.35,22.8-.13.16-.26.32-.38.49-1.09,3.4-3.42,4.27-6.62,3.13-1.7-.6-3.52-.79-5.18-1.5l.1,0C119.6,54.42,117.1,52.46,116.24,48.66Z"/><path class="cls-56" d="M157,36.43c1,3.2,2.39,6.39.35,9.7-4.73-1.57-4.49-5.89-4.28-9.34S155.55,36.18,157,36.43Z"/><path class="cls-57" d="M173.12,41.36a7.82,7.82,0,0,1,2.09,4.79c0,1.52.82,3.47-1,4.38-1.59.79-2.58-.84-3.71-1.67,0-2.69-.07-5.37-.1-8.06Z"/><path class="cls-58" d="M214,55.78c4.3,3.53,4.75,7.11,1.27,10.21l-1.06-.75C212.51,62.12,210.8,59,214,55.78Z"/><path class="cls-59" d="M203.66,52.89c4,1.17,6,4.79,4.6,8.42-.59,1.58-1.69,1.13-2.79.87l-1.14-1.28C202.47,58.37,203.76,55.57,203.66,52.89Z"/><path class="cls-60" d="M199,60l-.41,0h-.4c-2-.82-4.31-1.29-4.37-4.15-.1-1.65-.55-3.32.35-4.9a2.51,2.51,0,0,1,1.25-1.07c5.34.35,4,5.3,5.62,8.19Z"/><path class="cls-61" d="M275.08,77.74c4.49,3.45,5.09,7.66,1.37,9.54l-1-.54C274.81,83.76,272.06,80.85,275.08,77.74Z"/><path class="cls-62" d="M180.48,53.63c-1.3-3.16-2.42-6.34-1.35-9.83L182.31,45c1.45,2.79,1.2,5.78,1,8.77Z"/><path class="cls-63" d="M225.26,60a53.86,53.86,0,0,1,.79,5.78c0,1.12.68,2.94-1.37,3-1.51.07-2.23-1.18-2.51-2.56-.35-1.75-.65-3.52-1-5.28C221.91,57.91,223.82,59.88,225.26,60Z"/><path class="cls-64" d="M242.4,66c2.17,3.08,4.23,6.17,1.2,9.87L241.28,75c-.33-2.2-.69-4.4-1-6.61C240.06,66.84,240.68,65.92,242.4,66Z"/><path class="cls-65" d="M235.52,69c-.35,1.19-.09,2.93-2.14,2.65a2.23,2.23,0,0,1-2-2.45c.27-2.08-2.62-5.19.56-6,2.89-.76,3.06,2.73,3.65,4.91A2.32,2.32,0,0,1,235.52,69Z"/><path class="cls-66" d="M308.48,89.9A51.46,51.46,0,0,1,309.86,95c.32,1.92.12,3.7-2.63,3.3-2-2-1.87-4.54-2-7C305.13,88.38,306.82,89.05,308.48,89.9Z"/><path class="cls-67" d="M293,83.88l2.26,4.31c-1,1.64,1.7,7-3.95,3.86-.29-1.93-.55-3.85-.86-5.77C290.06,84.19,291.23,83.76,293,83.88Z"/><path class="cls-68" d="M297.83,87.89c.91-2,2.29-1,3.58-.55,1.24,2.72.39,5.63.77,8.43C296.77,95.33,299.11,90.61,297.83,87.89Z"/><path class="cls-69" d="M205,36.61c5.09,1.37,7.59,3.85,9.46,8.44C209.47,43.85,207.19,41.06,205,36.61Z"/><path class="cls-70" d="M256.24,55.1c4.7,1.33,7.36,3.48,8.95,7.94C260.51,62.08,258.51,59.17,256.24,55.1Z"/><path class="cls-71" d="M317.35,95c-1.58,1.74.41,4.72-2.11,6.15-2.86-.4-2.77-2.12-1.87-4.2l0-4.88C315.76,91.59,316.25,93.69,317.35,95Z"/><path class="cls-72" d="M124.29,29.05c-1.33-.62-3.13-.78-2.91-2.93,3.41-.48,6.32.5,9.36,2.95C128.12,30.76,126.22,28.7,124.29,29.05Z"/><path class="cls-73" d="M116.24,48.66c2.28,2.2,3.71,5.36,7.11,6.32-2.56.07-5-.35-6.89-2.24C116.55,51.37,114,50.14,116.24,48.66Z"/><path class="cls-74" d="M34.11,11c2.59-2.65,5.75-3.26,9.37-3.08,4.94.25,9.9.06,15.27.06-1.26,4.9-3.11,7.63-8.29,7.1a76.59,76.59,0,0,0-13.46,0c-4,.3-3.94-1.43-2.76-4.2Z"/><path class="cls-75" d="M74.65,10.6c4.39.67,9.1.49,10.06,6.28A3.64,3.64,0,0,1,84,19.42c-3.09-3-4.86,1.67-7.45,1.18-1.77-.34-4.4,1.54-5.14-1.19a12.69,12.69,0,0,1,.68-8.26C72.6,10.06,73.89,10.65,74.65,10.6Z"/><path class="cls-76" d="M69.25,15.33c-.8.9,1.57,5.08-1.71,4.15s-8.23-1.06-9-5.46c-.29-1.59.94-5.74,4.79-5C66.37,9.63,71.14,8.79,69.25,15.33Z"/><path class="cls-77" d="M551.88,92.72a39,39,0,0,1-15.66,1.87c6.48-20.62,16.94-38.4,36-50.14C562.73,59.43,560.76,77.51,551.88,92.72Z"/><path class="cls-78" d="M556.34,180.88c1.34,3.48,4.06,6.08,5.81,9.28,1.21,2.22,1.67,3.74-2.14,4.09a123.93,123.93,0,0,1-24.36-.06c-5.7-.57-11.56,1.08-17.33-.23l-1.17-1.05a2.33,2.33,0,0,1,.61-3.46c3.17-2.2,4.56-5.93,7.39-8.4,1.74-1.84,2.75-4.78,6.16-4.13,4.55,2,7.35-1.38,10.4-3.57,1.71-1.24,3-3.13,4.42-4.72a12.06,12.06,0,0,1,5.32-3.59c-.32,1.8-2.71,2.71-2.12,4.9.4,3.43,3.11,6.36,1.95,10.57C554,175.43,554.87,179.9,556.34,180.88Z"/><path class="cls-79" d="M531.31,176.92l-5,5c-1.86,1.52-4.49,2.09-5.5,4.66a2,2,0,0,1-2.3,1.45c-1-.26-1.43-1.27-1.76-2.23-2.3-6.66-2.5-6.66-10-6.3-3.33.17-7.25.66-7.46-4.56a101.48,101.48,0,0,0,13.94-14.17c1.82-2.33,3.45-4.15,2-7.46-1.52-3.59,2.36-1.18,3.43-2.68-3.71-1.48-7.88-2-10.2-5.6,11.23,3.61,21.75,8.91,32.46,13.75,2.94,1.33,1.78,2.92.38,4.63C537.81,167.75,534.07,172,531.31,176.92Z"/><path class="cls-80" d="M548.91,137.56c-4.66.54-8.77,2.05-11.76-3C541.65,133.08,545.2,134,548.91,137.56Z"/><path class="cls-81" d="M276.28,137c-6.52.12-12.55-2.57-18.93-3.24a37.07,37.07,0,0,0-18.09-8.22,17.9,17.9,0,0,1-4.35-.89c-17.53-7.64-36.2-12.17-53.78-19.72-5.12-2.2-11-1.85-16.38-3.41-3.21.57-5.72-1.49-8.57-2.31-6.64-2.63-13.7-3.75-20.54-5.64A155.84,155.84,0,0,0,102,88.14c-4.11-.2-8-2-12-3.16-1.88-.58-3.27-1.69-2.7-4,13.51,2.54,27.23,3.36,40.82,5.15,9.64,1.27,19.07,4.21,28.57,6.5,9,2.17,18.15,4,27,6.79,11.69,3.64,23,8.45,34.76,12,9.33,2.8,17.92,7.82,27.82,8.92,2.18.25,5.25,0,5.7,3.62.12,1,1.28,1.08,2.08,1,7.76-1.33,15.5.65,23.25.09a3,3,0,0,1,2.8,2C280.45,130.89,276.06,133.05,276.28,137Z"/><path class="cls-82" d="M87.3,81c5.18,4.61,11.8,5.26,18.14,5.83,12.07,1.09,24,2.89,35.51,6.56,5.38,1.71,11.18,1.85,16.27,4.57,0,3.61-2.52,2.81-4.5,2.36-11.75-2.71-23.35-6-35.17-8.47-8-1.67-16.21-2.32-24.23-4a15.37,15.37,0,0,0-6-.92c-6.8-2.69-14.07-3.59-21.07-5.49-2.39-.65-4.94-.85-7-2.49a3.84,3.84,0,0,1-2-3c6.34,1.75,12.74,3.32,19,5.33,2.85.91,4.68-1.26,7.09-1.39Z"/><path class="cls-83" d="M279.14,127.1c-.61-.72-1.23-1.43-1.85-2.15a1.42,1.42,0,0,0,.22-.83,5.06,5.06,0,0,0,.68-.4,7.1,7.1,0,0,1,1.6-1.18c3.89-1.35,8.08-.48,11.72-4.34,2.94-3.13,11.09,1.13,13.3,5.91-2.46,4.06-13.39,8.33-17.9,6.36C284.34,129.34,280.64,130.63,279.14,127.1Z"/><path class="cls-84" d="M418.26,192.06l5.93-3.07c1.33-4.26,4.58-5.46,8.62-5.38,12.29.57,24,5.13,36.36,5.24,2.43,0,4.61.64,6.12,2.73,1.39,2.86-.66,4.17-2.51,5.62-1.42,1.1-3.55,1-4.55,2.79-14.27,1-28.09-2.63-42.12-4.07A11.36,11.36,0,0,1,418.26,192.06Z"/><path class="cls-85" d="M468.23,200c0-4.75,5-4.41,7.1-7,.6-3.13,2.67-4.09,5.6-3.77.76.32,1.49.87,2.33.72,8.29-1.45,16.67-.3,25-.87,3-.2,7.36-1.62,7.82,3.91-1,4-4.54,4.92-7.72,6.28Z"/><path class="cls-86" d="M516.08,193c-2.34-2.65-5.34-2.2-8.27-1.61a20.55,20.55,0,0,1-10.69-.36c-3.66-1.18-7.15,1.88-11,1-2-.45-4.37.29-5.73-2-.05-.5-.2-1.12.08-1.45,4.7-5.4,9.55-10.63,16.82-12.59l2-1.07c1.74,2.43,4.18,3,7,2.53.81-.13,1.61-.36,2.43-.43,7.69-.6,10.27,1.82,10.06,9.57.34-5.45,3.56-5.74,7.53-4.69l-9.15,11Z"/><path class="cls-87" d="M118.14,134.93l1.11-1.14a35.52,35.52,0,0,0,7.7,2c9.3.72,14.58,10.65,10.29,19.16a4.51,4.51,0,0,0-.43,2.34c.67,6.92-3.89,13.46-10.23,14.58A13.28,13.28,0,0,1,111,161.44c-1-4.25-1.18-8.34,1.11-12.52C114.5,144.48,116.15,139.62,118.14,134.93Z"/><path class="cls-88" d="M383.3,140.93c5.64-5,7.33-11.51,7-18.76,6.65,3.77,12.3,8.49,15.11,15.9q-.22,4.91-.44,9.81c-1.41,1.2-2.88,2.36-4.85,2.1-6.32-.87-12.68-1.68-17.49-6.59A2.5,2.5,0,0,1,383.3,140.93Z"/><path class="cls-34" d="M59.3,79c7.41,1.76,14.84,3.49,22.24,5.32,2.07.52,4.22,1,5.81,2.66-8.11-1.19-15.81-4.36-24-5C62.11,80.77,60.06,80.73,59.3,79Z"/><path class="cls-89" d="M432,184.76,424.19,189c-6.59-2.64-13.12-5.45-19.8-7.85-4.07-1.47-3.82-4.93-4.27-8.13-7.05,2.31-9.23,1.35-11.73-5,5.23-.39,7.19-5.41,11-7.78.34,3.82,2.48,5.65,6.19,6.63,8.35,2.23,15.89,6.57,23.9,9.73a31.44,31.44,0,0,0,9,2.59C438.82,183.94,435.38,184.3,432,184.76Z"/><path class="cls-90" d="M383.21,143c7.11,2.26,13.93,5.79,21.74,4.92l-.63,3.12c-2.87,5.42-6.42,6.68-14.31,4.26a145.33,145.33,0,0,0-20.76-4.59c-7.93-1.19-15.81-3.14-23.87-3.64a4.13,4.13,0,0,1-3.13-1.28c-.45-2.28.9-3.3,2.78-3.94,10.64,1.12,21.4.43,32,2C379.18,144.09,380.94,141.6,383.21,143Z"/><path class="cls-91" d="M345.26,143c-1,.93-2,1.87-3,2.81-6.78,2.68-14,3.24-21.09,4.27-3,.44-6.15,2.22-7.79-2.1a1.7,1.7,0,0,1,2.11-.09c11.5,1.65,21.1-1.9,28.92-10.47,1.65-1.81,3.19-3.84,5.74-4.55l.27.36C351.75,138.05,350.29,140.81,345.26,143Z"/><path class="cls-34" d="M315.48,147.84l-2.11.09c-3.73-3.48-8.85-4.42-13-7.1,1.08-.93,2.14-.21,3.2,0,2-1.35,3.16,1.11,4.87,1C310.68,144,312.73,146.32,315.48,147.84Z"/><path class="cls-34" d="M93.32,87.86c14.88,0,29.11,4,43.47,7.12,5.85,1.28,11.66,2.7,17.48,4.11a2.34,2.34,0,0,0,2.95-1.16c3.21-2.27,4.3,2.71,7,2.06a21.93,21.93,0,0,0,11.66,3.53c4.43,0,8.08,2.72,12.12,4.11,11.73,4.05,23.2,8.84,35.24,12a39.06,39.06,0,0,1,5.95,2.5c3.61,1.63,7.18,3.18,11.27,3.61,2.64.28,6.23.12,6.82,4.21-9.53,2.72-17.65-1.68-26.06-5-6.31-2.46-12.72-4.75-19.24-6.59-8.86-2.51-16.62-8.33-25.45-9.91-9.26-1.66-17.82-5-26.75-7.41-12.05-3.22-24-6.76-36.24-9.31-5.74-1.2-11.85-.84-17.55-2.8C95.1,88.66,94.22,88.24,93.32,87.86Z"/><path class="cls-82" d="M247.31,130c-9.39-3.09-18.82-6.06-28.16-9.3-12.21-4.24-24.4-8.57-36.49-13.13-3.27-1.23-6.34-2.48-9.93-2.77-3.3-.26-7.15-.56-8.48-4.77,6.32,1.17,13.07,1.31,18.89,3.7,17.07,7,34.91,11.81,52,18.9,5.49,2.29,11.77,2.67,17.39,5.29,2.85,1.34,5.08,2.33,4.86,5.84C253.82,133,250.24,132.32,247.31,130Z"/><path class="cls-34" d="M279.14,127.1c8.91,3.47,17,.61,25.07-3.09a1.37,1.37,0,0,1,2-.05q0,5,0,9.94c-.88-3-2.45-4.17-5.78-3a102.1,102.1,0,0,1-10.64,2.47c-.81.18-2,.76-2.37.43-5.36-4.48-7.66,1.33-11.11,3.2-2.84-3-2.48-5.56,1.19-7.6A2.94,2.94,0,0,0,279.14,127.1Z"/><path class="cls-81" d="M269.11,138.82c-2,1.26-2.11,7.14-6.7,2.79C263.81,138.92,266.64,139.25,269.11,138.82Z"/><path class="cls-31" d="M308.43,141.86c-2,1.59-3.26-.61-4.87-1,0-1.78,1.38-2.19,2.63-2.76Z"/><path class="cls-92" d="M432,184.76l6.51-5.55c6.7-4.44,10.58-11.4,15.56-17.36,10.34,4.5,20.08,10.54,31.84,11.24,3.83.23,7.57,1.89,11.34,2.9-5.27,5.11-11.13,9.52-16.9,14L475.33,193c-5.57-3.55-12.07-1.32-18-2.93C449,187.78,440.3,187.28,432,184.76Z"/><path class="cls-93" d="M460.18,149.94c.42-2-.76-4.28,1.15-6a6.46,6.46,0,0,1,2.83,4.92c.11,1.34.76,3.28-1.15,3.75S460.59,151.42,460.18,149.94Z"/><path class="cls-94" d="M487.24,157.93c.29-1.12-.6-3.3,1.08-3.19,2.66.17,2.72,2.82,2.86,4.9.08,1.2.36,3.13-1.52,2.94C487,162.31,487.45,159.84,487.24,157.93Z"/><path class="cls-95" d="M493.38,160.25c.2-1.28-.23-3.24,1.68-2.95,2.58.4,2.25,2.83,2.27,4.74,0,1.19.47,3.34-1.19,3.17C493.41,164.94,493.82,162.16,493.38,160.25Z"/><path class="cls-96" d="M484.44,157.08c-.28,1.33.32,3.5-1.47,3.15-2.56-.49-2.36-3.17-2.53-5.23-.08-1.05-.36-2.83,1.19-2.68C484.51,152.6,484.08,155.24,484.44,157.08Z"/><path class="cls-97" d="M467.12,149.75c.15-1-.61-2.87,1.21-2.49,2.52.52,2.65,3,2.81,5.14.09,1.2.23,3.19-1.7,2.71C466.75,154.44,467.41,151.77,467.12,149.75Z"/><path class="cls-98" d="M453.13,145.35c.45-1-.53-3.4,1.31-3,2.57.63,1.9,3.7,2.55,5.72.27.83.16,2.41-1.09,2.25C453,150,453.49,147.39,453.13,145.35Z"/><path class="cls-99" d="M306.22,124l-2,.05c-1.18-.83-2.92-.68-3.69-2.22-2.48-5-6.59-2.65-9.89-1.74s1.17,2.32.31,3.67H278.19c-1.21-4.7,1.86-5.68,5.44-6.59a28.67,28.67,0,0,1,14.63.06c1.32.85,2.82.78,4.3.83C309,118.2,309,118.25,306.22,124Z"/><path class="cls-100" d="M164.51,48.12c-3.28-2-2.5-5.54-2.86-8.41-.29-2.26,1.69-1.85,3-.86,1.58,1.14,1.65,3.13,2.45,4.7C165.77,44.78,167.3,47.7,164.51,48.12Z"/><path class="cls-73" d="M123.25,54.94c4-.07,8.45,3.14,11.8-1.64.27,4.12-1.57,5.48-5.42,4.11C127.49,56.64,125.38,55.77,123.25,54.94Z"/><path class="cls-3" d="M319.24,104.89c-3.68-2.31.07-4.87,0-7.3v7.3Z"/><path class="cls-3" d="M313.37,96.9c0,1.67.07,3.32,1.87,4.2-.62.77-1.53,2-2.32.87C311.75,100.38,312.12,98.5,313.37,96.9Z"/><path class="cls-101" d="M345.26,143a32.36,32.36,0,0,0,5.15-9.77,15.14,15.14,0,0,1,14.25,0c.9.44,1.79.89,2.7,1.26,7,2.86,7.43,2.63,8.6-4.91-.85,6.09,1.36,10.06,7.34,11.42l-.09,2c-2.82,2.52-5.57,2.74-9.63,2.52-4.41-.24-9-1.4-13.76-.56S350,144.32,345.26,143Z"/><path class="cls-102" d="M333.36,105.89c1.15.42,2.43.68,2.85,2.1-1.63,2.64-4.39,1.84-6.76,2.22-6.18,1-8.71,5.25-6.44,10.44,1.17,2.68,2.68,3.36,5.45,2.62a19.66,19.66,0,0,1,9.85-.39c1.84.46,3.59.86,4,3.09-.58,1-2.19,1.12-1.86,3,1.17,6.79-.64,10.49-6.61,14a37,37,0,0,1-5.45,2.15c-5.42.21-8-1.31-9.87-6.21a79.16,79.16,0,0,0-3.78-9.11c-6-11.46,1.88-24.42,14.74-24.32C330.78,105.49,332.14,105.12,333.36,105.89Z"/><path class="cls-103" d="M342.32,126a18.27,18.27,0,0,0-14-.23c-3.61,1.34-5.57.19-7-3.16-3.62-8.56.35-14.5,9.92-14.64,1.66,0,3.32,0,5,0C342.53,112.32,344.8,119,342.32,126Z"/><path class="cls-104" d="M333.36,105.89c-6.53-.35-13.2-.29-16.15,6.9-2.13,5.19-3.73,10.89-.28,16.35a25,25,0,0,1,3.25,7.62c1,4.26,3.52,7.5,8.22,8.35-7.33,2-13.19-.39-16-7.09-3.68-8.8-3.31-17.58,1.85-25.79A15.67,15.67,0,0,1,333.36,105.89Z"/><path class="cls-105" d="M249,68.62c1.32-2.34,2.82-1.11,4.06-.05a37.09,37.09,0,0,1,3.3,3.65c2.12,2,3.5,4.18.65,6.71-3,4.24-4.12,4.12-6.86-.71C249.84,75,250.61,71.68,249,68.62Z"/><path class="cls-106" d="M257.05,78.93q-.32-3.36-.65-6.71c2.72-1,3.63,1.21,4.9,2.78l0-.06c0,.81.06,1.62,0,2.42-.1,1.22.45,2.8-1.16,3.35S257.8,80,257.05,78.93Z"/><path class="cls-107" d="M249,68.62c3.51,2.6,4,6.47,1.16,9.6A9,9,0,0,1,249,68.62Z"/><path class="cls-108" d="M189.4,56.83c-2.72-3.09-3-6.44-1.13-10,2.83-.37,4.13,1.12,4.54,3.7.11,1.65,1.15,3.2.53,4.92C192.41,56.94,191.41,58.3,189.4,56.83Z"/><path class="cls-43" d="M189.4,56.83,192.19,55c1.44-1.05,2.23.18,3.16.92a9.67,9.67,0,0,0,2.87,4C194.64,60.7,190.67,62.61,189.4,56.83Z"/><path class="cls-109" d="M191.7,50.79a9.09,9.09,0,0,0-3.43-4c4.48-4,5.15,1.15,7.18,3l-.42,1.6A2.22,2.22,0,0,1,191.7,50.79Z"/><path class="cls-47" d="M191.7,50.79l3.33.62c.11,1.51.22,3,.32,4.53L192.19,55C192,53.61,191.86,52.2,191.7,50.79Z"/></g></g></svg>